<?xml version="1.0" encoding="UTF-8"?>
<!DOCTYPE svg PUBLIC "-//W3C//DTD SVG 1.1//EN" "http://www.w3.org/Graphics/SVG/1.1/DTD/svg11.dtd">
<svg xmlns="http://www.w3.org/2000/svg" version="1.1" width="96px" height="96px" style="shape-rendering:geometricPrecision; text-rendering:geometricPrecision; image-rendering:optimizeQuality; fill-rule:evenodd; clip-rule:evenodd" xmlns:xlink="http://www.w3.org/1999/xlink">
<g><path style="opacity:0.927" fill="#f1b217" d="M 77.5,9.5 C 82.4943,9.32904 84.3276,11.6624 83,16.5C 81.8061,17.4303 80.4728,18.0969 79,18.5C 76.1904,16.7437 73.6904,14.577 71.5,12C 73,9.83333 74.1667,10 75,12.5C 75.6979,11.3094 76.5313,10.3094 77.5,9.5 Z"/></g>
<g><path style="opacity:0.992" fill="#cddff2" d="M 75.5,70.5 C 74.8333,70.5 74.5,70.8333 74.5,71.5C 74.5,71.8333 74.5,72.1667 74.5,72.5C 56.666,87.139 38.8327,87.139 21,72.5C 18.946,69.9528 17.1126,67.2861 15.5,64.5C 18.8461,59.826 17.8461,56.826 12.5,55.5C 9.27686,34.911 17.2769,20.7443 36.5,13C 58.299,8.3144 73.4657,16.1477 82,36.5C 85.2722,48.9691 83.1055,60.3025 75.5,70.5 Z"/></g>
<g><path style="opacity:0.785" fill="#77a6d3" d="M 80.5,20.5 C 82.1667,20.5 83.8333,20.5 85.5,20.5C 85.5,21.8333 85.5,23.1667 85.5,24.5C 83.8333,24.5 82.1667,24.5 80.5,24.5C 80.5,23.1667 80.5,21.8333 80.5,20.5 Z"/></g>
<g><path style="opacity:0.925" fill="#78a1ce" d="M 11.5,24.5 C 15.2336,25.9737 15.4002,27.6404 12,29.5C 8.92809,28.119 8.76143,26.4523 11.5,24.5 Z"/></g>
<g><path style="opacity:1" fill="#5c565a" d="M 61.5,26.5 C 61.5,26.8333 61.5,27.1667 61.5,27.5C 56.1667,26.1667 50.8333,26.1667 45.5,27.5C 45.1667,27.5 44.8333,27.5 44.5,27.5C 44.9528,26.5416 45.6195,25.7083 46.5,25C 50.8333,24.3333 55.1667,24.3333 59.5,25C 60.4158,25.2784 61.0825,25.7784 61.5,26.5 Z"/></g>
<g><path style="opacity:1" fill="#49b4cb" d="M 61.5,27.5 C 61.6665,38.1719 61.4998,48.8385 61,59.5C 60.285,65.2151 57.1184,68.7151 51.5,70C 39.7455,71.8927 33.9122,67.0594 34,55.5C 36.0639,54.4086 38.2305,54.2419 40.5,55C 41.1978,62.4004 44.8644,64.7337 51.5,62C 52.305,60.8873 52.9717,59.7206 53.5,58.5C 53.5,50.1667 53.5,41.8333 53.5,33.5C 51.1432,33.6633 48.8098,33.4966 46.5,33C 45.5939,31.3005 45.2606,29.4672 45.5,27.5C 50.8333,26.1667 56.1667,26.1667 61.5,27.5 Z"/></g>
<g><path style="opacity:1" fill="#49302f" d="M 44.5,27.5 C 44.8333,27.5 45.1667,27.5 45.5,27.5C 45.2606,29.4672 45.5939,31.3005 46.5,33C 48.8098,33.4966 51.1432,33.6633 53.5,33.5C 53.5,41.8333 53.5,50.1667 53.5,58.5C 53.1667,58.5 52.8333,58.5 52.5,58.5C 52.5,50.5 52.5,42.5 52.5,34.5C 46.0729,36.2382 43.4062,33.9049 44.5,27.5 Z"/></g>
<g><path style="opacity:0.919" fill="#facf5d" d="M 12.5,55.5 C 17.8461,56.826 18.8461,59.826 15.5,64.5C 10.5057,64.671 8.67237,62.3376 10,57.5C 10.7083,56.6195 11.5416,55.9528 12.5,55.5 Z"/></g>
<g><path style="opacity:1" fill="#e9bf59" d="M 18.5,62.5 C 20.337,62.6395 20.6704,63.3061 19.5,64.5C 18.7025,64.0431 18.3691,63.3764 18.5,62.5 Z"/></g>
<g><path style="opacity:1" fill="#534344" d="M 61.5,26.5 C 62.6597,38.3262 62.8263,50.3262 62,62.5C 59.2167,69.063 54.2167,72.063 47,71.5C 36.077,70.915 31.4103,65.2484 33,54.5C 35.627,52.0117 38.4603,51.8451 41.5,54C 42.8019,56.2129 43.8019,58.5463 44.5,61C 47.9711,62.1634 50.6377,61.3301 52.5,58.5C 52.8333,58.5 53.1667,58.5 53.5,58.5C 52.9717,59.7206 52.305,60.8873 51.5,62C 44.8644,64.7337 41.1978,62.4004 40.5,55C 38.2305,54.2419 36.0639,54.4086 34,55.5C 33.9122,67.0594 39.7455,71.8927 51.5,70C 57.1184,68.7151 60.285,65.2151 61,59.5C 61.4998,48.8385 61.6665,38.1719 61.5,27.5C 61.5,27.1667 61.5,26.8333 61.5,26.5 Z"/></g>
<g><path style="opacity:0.765" fill="#fbcc58" d="M 75.5,70.5 C 76.8333,70.5 78.1667,70.5 79.5,70.5C 79.5,71.8333 79.5,73.1667 79.5,74.5C 77.302,74.8799 75.6354,74.2132 74.5,72.5C 74.5,72.1667 74.5,71.8333 74.5,71.5C 75.1667,71.5 75.5,71.1667 75.5,70.5 Z"/></g>
<g><path style="opacity:0.861" fill="#74a8d1" d="M 21.5,80.5 C 22.8333,80.5 24.1667,80.5 25.5,80.5C 25.5,82.1667 25.5,83.8333 25.5,85.5C 24.1667,85.5 22.8333,85.5 21.5,85.5C 21.5,83.8333 21.5,82.1667 21.5,80.5 Z"/></g>
</svg>
